<svg width="58" height="58" viewBox="0 0 58 58" fill="none" xmlns="http://www.w3.org/2000/svg">
<path d="M31.0781 9C33.3302 9.00601 34.4733 9.01802 35.4602 9.04604L35.8486 9.06006C36.297 9.07607 36.7394 9.09609 37.274 9.12012C39.404 9.22021 40.8574 9.55654 42.1326 10.051C43.4538 10.5595 44.5669 11.2482 45.6799 12.3593C46.6983 13.3597 47.486 14.5704 47.9881 15.9067C48.4826 17.182 48.8189 18.6354 48.919 20.7675C48.943 21.3 48.963 21.7424 48.9791 22.1929L48.9911 22.5812C49.0211 23.5662 49.0331 24.7093 49.0371 26.9615L49.0391 28.455V31.0775C49.044 32.5378 49.0286 33.998 48.9931 35.4578L48.9811 35.8462C48.965 36.2966 48.945 36.739 48.921 37.2716C48.8209 39.4036 48.4806 40.8551 47.9881 42.1323C47.486 43.4687 46.6983 44.6793 45.6799 45.6798C44.6795 46.6981 43.4689 47.4859 42.1326 47.988C40.8574 48.4825 39.404 48.8188 37.274 48.9189L35.8486 48.979L35.4602 48.991C34.4733 49.019 33.3302 49.033 31.0781 49.037L29.5847 49.039H26.9642C25.5033 49.0442 24.0425 49.0288 22.582 48.993L22.1937 48.981C21.7184 48.963 21.2433 48.9423 20.7683 48.9189C18.6383 48.8188 17.1849 48.4825 15.9077 47.988C14.5721 47.4856 13.3622 46.6979 12.3623 45.6798C11.3433 44.6795 10.5548 43.4688 10.0521 42.1323C9.55767 40.8571 9.22135 39.4036 9.12125 37.2716L9.0612 35.8462L9.05119 35.4578C9.01428 33.998 8.9976 32.5378 9.00114 31.0775V26.9615C8.9956 25.5013 9.01028 24.0411 9.04518 22.5812L9.05919 22.1929C9.07521 21.7424 9.09523 21.3 9.11925 20.7675C9.21935 18.6354 9.55566 17.184 10.0501 15.9067C10.554 14.5698 11.3438 13.3591 12.3643 12.3593C13.3636 11.3414 14.5728 10.5537 15.9077 10.051C17.1849 9.55654 18.6363 9.22021 20.7683 9.12012C21.3008 9.09609 21.7452 9.07607 22.1937 9.06006L22.582 9.04805C24.0418 9.01248 25.502 8.99713 26.9622 9.002L31.0781 9ZM29.0201 19.0098C26.3654 19.0098 23.8195 20.0644 21.9423 21.9415C20.0652 23.8187 19.0106 26.3648 19.0106 29.0195C19.0106 31.6743 20.0652 34.2203 21.9423 36.0975C23.8195 37.9747 26.3654 39.0293 29.0201 39.0293C31.6748 39.0293 34.2208 37.9747 36.0979 36.0975C37.9751 34.2203 39.0296 31.6743 39.0296 29.0195C39.0296 26.3648 37.9751 23.8187 36.0979 21.9415C34.2208 20.0644 31.6748 19.0098 29.0201 19.0098ZM29.0201 23.0137C29.8088 23.0135 30.5898 23.1687 31.3185 23.4704C32.0472 23.7721 32.7093 24.2144 33.2671 24.772C33.8249 25.3296 34.2673 25.9916 34.5693 26.7202C34.8712 27.4489 35.0267 28.2298 35.0268 29.0185C35.027 29.8072 34.8717 30.5882 34.5701 31.3169C34.2684 32.0456 33.8261 32.7078 33.2685 33.2656C32.7109 33.8234 32.0489 34.2659 31.3203 34.5678C30.5917 34.8698 29.8108 35.0252 29.0221 35.0254C27.4293 35.0254 25.9017 34.3926 24.7755 33.2663C23.6492 32.14 23.0164 30.6124 23.0164 29.0195C23.0164 27.4267 23.6492 25.899 24.7755 24.7727C25.9017 23.6464 27.4293 23.0137 29.0221 23.0137M39.5321 16.0068C38.8684 16.0068 38.2319 16.2705 37.7627 16.7398C37.2934 17.2091 37.0297 17.8456 37.0297 18.5093C37.0297 19.173 37.2934 19.8095 37.7627 20.2788C38.2319 20.7481 38.8684 21.0117 39.5321 21.0117C40.1958 21.0117 40.8323 20.7481 41.3015 20.2788C41.7708 19.8095 42.0345 19.173 42.0345 18.5093C42.0345 17.8456 41.7708 17.2091 41.3015 16.7398C40.8323 16.2705 40.1958 16.0068 39.5321 16.0068Z" fill="white"/>
</svg>
