<svg width="58" height="58" viewBox="0 0 58 58" fill="none" xmlns="http://www.w3.org/2000/svg">
<path d="M25.0283 30.7772C25.2276 30.7772 29.8514 30.9765 32.6018 30.2989H32.6217C35.7907 29.5216 40.1953 27.2894 41.3313 19.9949C41.3313 19.9949 43.8624 10.8668 31.3063 10.8668H20.524C19.5474 10.8668 18.7104 11.5843 18.5509 12.541L13.9669 41.5596C13.8673 42.1575 14.3456 42.7155 14.9435 42.7155H21.7796L23.4538 32.1126C23.5734 31.3552 24.2311 30.7772 25.0283 30.7772Z" fill="white"/>
<path d="M43.0853 21.4099C41.4709 28.8439 36.3887 32.7702 28.297 32.7702H25.3672L23.3144 45.7648C23.2347 46.283 23.6333 46.7414 24.1515 46.7414H27.9382C28.6159 46.7414 29.2138 46.2431 29.3134 45.5655C29.4729 44.7683 30.3498 38.9486 30.5292 37.9521C30.6288 37.2745 31.2267 36.7762 31.9044 36.7762H32.7813C38.4017 36.7762 42.8063 34.4842 44.1017 27.8873C44.6199 25.2166 44.3409 23.0243 43.0853 21.4099Z" fill="white"/>
</svg>
