<svg width="1080" height="78" viewBox="0 0 1080 78" fill="none" xmlns="http://www.w3.org/2000/svg">
<path d="M0 0H38.5714V38.5714H0V0Z" fill="#2C2C2C" fill-opacity="0.5"/>
<path d="M77.1429 0H115.714V38.5714H77.1429V0Z" fill="#2C2C2C" fill-opacity="0.5"/>
<path d="M154.286 0H192.857V38.5714H154.286V0Z" fill="#2C2C2C" fill-opacity="0.5"/>
<path d="M231.429 0H270V38.5714H231.429V0Z" fill="#2C2C2C" fill-opacity="0.5"/>
<path d="M308.571 0H347.143V38.5714H308.571V0Z" fill="#2C2C2C" fill-opacity="0.5"/>
<path d="M385.714 0H424.286V38.5714H385.714V0Z" fill="#2C2C2C" fill-opacity="0.5"/>
<path d="M462.857 0H501.429V38.5714H462.857V0Z" fill="#2C2C2C" fill-opacity="0.5"/>
<path d="M540 0H578.571V38.5714H540V0Z" fill="#2C2C2C" fill-opacity="0.5"/>
<path d="M617.143 0H655.714V38.5714H617.143V0Z" fill="#2C2C2C" fill-opacity="0.5"/>
<path d="M694.286 0H732.857V38.5714H694.286V0Z" fill="#2C2C2C" fill-opacity="0.5"/>
<path d="M771.429 0H810V38.5714H771.429V0Z" fill="#2C2C2C" fill-opacity="0.5"/>
<path d="M848.571 0H887.143V38.5714H848.571V0Z" fill="#2C2C2C" fill-opacity="0.5"/>
<path d="M925.714 0H964.286V38.5714H925.714V0Z" fill="#2C2C2C" fill-opacity="0.5"/>
<path d="M1002.86 0H1041.43V38.5714H1002.86V0Z" fill="#2C2C2C" fill-opacity="0.5"/>
<path d="M38.5714 38.5715H77.1429V77.143H38.5714V38.5715Z" fill="#2C2C2C" fill-opacity="0.5"/>
<path d="M115.714 38.5715H154.286V77.143H115.714V38.5715Z" fill="#2C2C2C" fill-opacity="0.5"/>
<path d="M192.857 38.5715H231.429V77.143H192.857V38.5715Z" fill="#2C2C2C" fill-opacity="0.5"/>
<path d="M270 38.5715H308.571V77.143H270V38.5715Z" fill="#2C2C2C" fill-opacity="0.5"/>
<path d="M347.143 38.5715H385.714V77.143H347.143V38.5715Z" fill="#2C2C2C" fill-opacity="0.5"/>
<path d="M424.286 38.5715H462.857V77.143H424.286V38.5715Z" fill="#2C2C2C" fill-opacity="0.5"/>
<path d="M501.429 38.5715H540V77.143H501.429V38.5715Z" fill="#2C2C2C" fill-opacity="0.5"/>
<path d="M578.571 38.5715H617.143V77.143H578.571V38.5715Z" fill="#2C2C2C" fill-opacity="0.5"/>
<path d="M655.714 38.5715H694.286V77.143H655.714V38.5715Z" fill="#2C2C2C" fill-opacity="0.5"/>
<path d="M732.857 38.5715H771.429V77.143H732.857V38.5715Z" fill="#2C2C2C" fill-opacity="0.5"/>
<path d="M810 38.5715H848.571V77.143H810V38.5715Z" fill="#2C2C2C" fill-opacity="0.5"/>
<path d="M887.143 38.5715H925.714V77.143H887.143V38.5715Z" fill="#2C2C2C" fill-opacity="0.5"/>
<path d="M964.286 38.5715H1002.86V77.143H964.286V38.5715Z" fill="#2C2C2C" fill-opacity="0.5"/>
<path d="M1041.43 38.5715H1080V77.143H1041.43V38.5715Z" fill="#2C2C2C" fill-opacity="0.5"/>
</svg>
